<?xml version="1.0" encoding="UTF-8"?>
<svg version="1.1" xmlns="http://www.w3.org/2000/svg" width="183" height="72">
<path d="M0 0 C1.24426758 -0.01836914 1.24426758 -0.01836914 2.51367188 -0.03710938 C7.63429921 -0.04923399 11.83757474 0.5315876 16.6875 2.1875 C16.6875 4.4975 16.6875 6.8075 16.6875 9.1875 C18.9975 9.1875 21.3075 9.1875 23.6875 9.1875 C22.736345 24.89795671 22.736345 24.89795671 17.3125 30.75 C14.46781107 32.30780584 12.8770979 32.55202547 9.6875 32.1875 C9.419375 32.80625 9.15125 33.425 8.875 34.0625 C7.6875 36.1875 7.6875 36.1875 4.6875 38.1875 C4.72753055 42.29450777 4.72753055 42.29450777 5.6875 46.1875 C7.97730909 47.87733507 9.90184833 48.37712861 12.6875 49.1875 C12.6875 50.8375 12.6875 52.4875 12.6875 54.1875 C13.6775 54.5175 14.6675 54.8475 15.6875 55.1875 C15.6875 56.1775 15.6875 57.1675 15.6875 58.1875 C6.1175 58.1875 -3.4525 58.1875 -13.3125 58.1875 C-13.3125 56.8675 -13.3125 55.5475 -13.3125 54.1875 C-12.6525 54.1875 -11.9925 54.1875 -11.3125 54.1875 C-11.3125 52.5375 -11.3125 50.8875 -11.3125 49.1875 C-9.6109375 48.6925 -9.6109375 48.6925 -7.875 48.1875 C-5.54789512 47.19220056 -4.55329834 46.69088838 -3.44921875 44.3828125 C-3.03241266 42.15142634 -2.94834615 40.42945923 -3.3125 38.1875 C-5.8606111 34.48862905 -8.19436687 33.13532185 -12.375 31.9375 C-14.89442377 31.08345804 -16.04693804 30.54573608 -17.64453125 28.390625 C-20.37690242 22.61887466 -21.41990714 16.47088392 -22.3125 10.1875 C-20.0025 9.5275 -17.6925 8.8675 -15.3125 8.1875 C-15.35375 7.40375 -15.395 6.62 -15.4375 5.8125 C-15.3125 3.1875 -15.3125 3.1875 -13.3125 1.1875 C-8.96675321 -0.25117482 -4.52760326 0.00346943 0 0 Z M-18.3125 12.1875 C-17.12826302 20.19134461 -17.12826302 20.19134461 -13.3125 27.1875 C-12.6525 27.1875 -11.9925 27.1875 -11.3125 27.1875 C-12.66475523 19.50113974 -12.66475523 19.50113974 -15.3125 12.1875 C-16.3025 12.1875 -17.2925 12.1875 -18.3125 12.1875 Z M0.6875 13.1875 C-1.2925 16.1575 -1.2925 16.1575 -3.3125 19.1875 C-2.3225 20.1775 -1.3325 21.1675 -0.3125 22.1875 C1.3375 21.5275 2.9875 20.8675 4.6875 20.1875 C3.61348892 17.27232708 2.90939824 15.40939824 0.6875 13.1875 Z M16.6875 13.1875 C16.49414062 13.76757812 16.30078125 14.34765625 16.1015625 14.9453125 C14.63020833 19.359375 13.15885417 23.7734375 11.6875 28.1875 C14.24473195 27.1882455 15.4772249 26.52368056 16.953125 24.1640625 C17.27796875 23.38804688 17.6028125 22.61203125 17.9375 21.8125 C18.44023438 20.65621094 18.44023438 20.65621094 18.953125 19.4765625 C19.89115543 16.9533648 19.89115543 16.9533648 19.6875 13.1875 C18.6975 13.1875 17.7075 13.1875 16.6875 13.1875 Z M-0.3125 25.1875 C-0.3125 25.8475 -0.3125 26.5075 -0.3125 27.1875 C0.6775 26.8575 1.6675 26.5275 2.6875 26.1875 C1.6975 25.8575 0.7075 25.5275 -0.3125 25.1875 Z " fill="#FFB636" transform="translate(22.3125,11.8125)"/>
<path d="M0 0 C5.38864297 2.73523309 7.50424502 6.84071891 9.61328125 12.2890625 C10.41985254 18.94327565 10.07402035 24.40150234 6.86328125 30.3515625 C3.4984446 34.32034419 0.53101366 37.04126734 -4.72265625 37.65234375 C-10.24821472 37.67556038 -14.46761101 37.65410212 -19.13671875 34.3515625 C-23.73192881 29.62870772 -25.22089309 24.95902569 -25.44921875 18.4765625 C-25.30870222 12.97988661 -24.51243106 7.96095143 -20.70703125 3.78125 C-14.87956121 -1.29241794 -7.3680041 -2.23599393 0 0 Z M-16.13671875 7.3515625 C-19.32057299 13.09859181 -19.88937442 19.05147591 -18.13671875 25.3515625 C-16.4842735 28.48551038 -15.0910021 30.59471708 -12.32421875 32.7890625 C-8.91851075 33.66481598 -6.52391583 33.24293015 -3.13671875 32.3515625 C-0.55374094 30.16164653 1.34743969 28.38324562 2.86328125 25.3515625 C3.83079994 16.14098767 3.83079994 16.14098767 1.11328125 7.6015625 C-1.76695042 4.72133083 -3.51436555 3.60772353 -7.51171875 2.9765625 C-11.37244894 3.52809538 -13.22074237 4.75254008 -16.13671875 7.3515625 Z " fill="#FFFFFF" transform="translate(137.13671875,14.6484375)"/>
<path d="M0 0 C5.38864297 2.73523309 7.50424502 6.84071891 9.61328125 12.2890625 C10.41985254 18.94327565 10.07402035 24.40150234 6.86328125 30.3515625 C3.4984446 34.32034419 0.53101366 37.04126734 -4.72265625 37.65234375 C-10.24821472 37.67556038 -14.46761101 37.65410212 -19.13671875 34.3515625 C-23.73192881 29.62870772 -25.22089309 24.95902569 -25.44921875 18.4765625 C-25.30870222 12.97988661 -24.51243106 7.96095143 -20.70703125 3.78125 C-14.87956121 -1.29241794 -7.3680041 -2.23599393 0 0 Z M-16.13671875 7.3515625 C-19.32057299 13.09859181 -19.88937442 19.05147591 -18.13671875 25.3515625 C-16.4842735 28.48551038 -15.0910021 30.59471708 -12.32421875 32.7890625 C-8.91851075 33.66481598 -6.52391583 33.24293015 -3.13671875 32.3515625 C-0.55374094 30.16164653 1.34743969 28.38324562 2.86328125 25.3515625 C3.83079994 16.14098767 3.83079994 16.14098767 1.11328125 7.6015625 C-1.76695042 4.72133083 -3.51436555 3.60772353 -7.51171875 2.9765625 C-11.37244894 3.52809538 -13.22074237 4.75254008 -16.13671875 7.3515625 Z " fill="#FFFFFF" transform="translate(98.13671875,14.6484375)"/>
<path d="M0 0 C5.94 0 11.88 0 18 0 C23 5 23 5 23.62890625 7.24609375 C23.46750548 12.57231909 22.709694 15.889258 19 20 C14.83083462 22.54782329 10.74277647 22.16077208 6 22 C6 26.62 6 31.24 6 36 C4.02 36 2.04 36 0 36 C0 24.12 0 12.24 0 0 Z M6 4 C6 8.62 6 13.24 6 18 C10.66416723 17.6409727 10.66416723 17.6409727 14.875 15.8125 C16.48390994 13.22036732 16.81086908 11.02609476 17 8 C15.37921338 4.82990528 15.37921338 4.82990528 12.8359375 4.48828125 C12.02382813 4.43027344 11.21171875 4.37226563 10.375 4.3125 C8.93125 4.209375 7.4875 4.10625 6 4 Z " fill="#FFFFFF" transform="translate(48,15)"/>
<path d="M0 0 C1.98 0 3.96 0 6 0 C6 10.56 6 21.12 6 32 C11.28 32 16.56 32 22 32 C22 33.32 22 34.64 22 36 C14.74 36 7.48 36 0 36 C0 24.12 0 12.24 0 0 Z " fill="#FFFFFF" transform="translate(153,15)"/>
<path d="M0 0 C7.92 0 15.84 0 24 0 C24 1.65 24 3.3 24 5 C25.65 5 27.3 5 29 5 C29 3.35 29 1.7 29 0 C29.99 0 30.98 0 32 0 C32 4.29 32 8.58 32 13 C31.01 13 30.02 13 29 13 C29 10.69 29 8.38 29 6 C27.35 6 25.7 6 24 6 C24 8.31 24 10.62 24 13 C23.01 13 22.02 13 21 13 C21 9.04 21 5.08 21 1 C19.35 1 17.7 1 16 1 C16 4.96 16 8.92 16 13 C15.01 13 14.02 13 13 13 C13 9.04 13 5.08 13 1 C9.7 1 6.4 1 3 1 C3 2.65 3 4.3 3 6 C4.32 6.33 5.64 6.66 7 7 C5.68 7 4.36 7 3 7 C3 8.65 3 10.3 3 12 C4.98 12 6.96 12 9 12 C9 12.33 9 12.66 9 13 C6.03 13 3.06 13 0 13 C0 8.71 0 4.42 0 0 Z " fill="#FFFFFF" transform="translate(126,57)"/>
<path d="M0 0 C3.75566081 0.06816081 3.75566081 0.06816081 6.0625 2.375 C6.3925 3.035 6.7225 3.695 7.0625 4.375 C7.3925 3.715 7.7225 3.055 8.0625 2.375 C10.0625 0.375 10.0625 0.375 12.04296875 0.109375 C14.05138143 0.12359385 16.05834122 0.24357975 18.0625 0.375 C18.3925 1.035 18.7225 1.695 19.0625 2.375 C16.4225 2.375 13.7825 2.375 11.0625 2.375 C11.0625 5.345 11.0625 8.315 11.0625 11.375 C13.5375 11.87 13.5375 11.87 16.0625 12.375 C16.0625 10.725 16.0625 9.075 16.0625 7.375 C17.0525 7.375 18.0425 7.375 19.0625 7.375 C19.0625 9.355 19.0625 11.335 19.0625 13.375 C16.02913814 13.60393297 13.08784949 13.73975845 10.0625 13.375 C8 11.375 8 11.375 7.0625 9.375 C6.7325 10.035 6.4025 10.695 6.0625 11.375 C3.79068908 13.64681092 3.15790828 13.76110725 0.0625 13.9375 C-3.12651588 13.76718423 -3.68104632 13.639225 -6 11.25 C-7.12278652 7.80678802 -6.93686105 5.8343267 -5.9375 2.375 C-3.9375 0.375 -3.9375 0.375 0 0 Z M-0.9375 1.375 C-3.09400737 3.70402796 -3.95200945 4.76560303 -3.875 8 C-3.14692333 10.52552118 -3.14692333 10.52552118 -0.875 11.6875 C-0.235625 11.914375 0.40375 12.14125 1.0625 12.375 C3.21900737 10.04597204 4.07700945 8.98439697 4 5.75 C3.27192333 3.22447882 3.27192333 3.22447882 1 2.0625 C0.360625 1.835625 -0.27875 1.60875 -0.9375 1.375 Z " fill="#FFFFFF" transform="translate(104.9375,56.625)"/>
<path d="M0 0 C0.825 -0.00773438 1.65 -0.01546875 2.5 -0.0234375 C7.58868373 -0.00728295 11.80427081 0.61277122 16.625 2.25 C16.295 2.91 15.965 3.57 15.625 4.25 C10.74658494 5.87613835 5.73344388 5.47618441 0.625 5.5 C-1.03402344 5.5309375 -1.03402344 5.5309375 -2.7265625 5.5625 C-3.78617188 5.56765625 -4.84578125 5.5728125 -5.9375 5.578125 C-7.39349609 5.59214355 -7.39349609 5.59214355 -8.87890625 5.60644531 C-11.75160185 5.19622078 -12.61430558 4.49533001 -14.375 2.25 C-9.63006756 -0.19025097 -5.20233511 -0.0483189 0 0 Z " fill="#FFD368" transform="translate(22.375,11.75)"/>
<path d="M0 0 C2.64 0 5.28 0 8 0 C8.70074844 3.153368 9 5.72724974 9 9 C9.93283296 11.20067421 9.93283296 11.20067421 11 13 C8.625 12.75 8.625 12.75 6 12 C4.6875 9.9375 4.6875 9.9375 4 8 C3.67 9.65 3.34 11.3 3 13 C2.01 13 1.02 13 0 13 C0 8.71 0 4.42 0 0 Z M3 1 C3 2.65 3 4.3 3 6 C3.99 5.67 4.98 5.34 6 5 C5.67 3.68 5.34 2.36 5 1 C4.34 1 3.68 1 3 1 Z " fill="#FFFFFF" transform="translate(170,57)"/>
<path d="M0 0 C2.97 0 5.94 0 9 0 C9 0.33 9 0.66 9 1 C7.02 1 5.04 1 3 1 C3 2.65 3 4.3 3 6 C4.65 6 6.3 6 8 6 C8 6.33 8 6.66 8 7 C6.35 7 4.7 7 3 7 C3 8.65 3 10.3 3 12 C4.98 12 6.96 12 9 12 C9 12.33 9 12.66 9 13 C6.03 13 3.06 13 0 13 C0 8.71 0 4.42 0 0 Z " fill="#FFFFFF" transform="translate(160,57)"/>
<path d="M0 0 C3.96 0 7.92 0 12 0 C10.68 0.33 9.36 0.66 8 1 C8 4.96 8 8.92 8 13 C7.01 13 6.02 13 5 13 C5 9.04 5 5.08 5 1 C3.35 1 1.7 1 0 1 C0 0.67 0 0.34 0 0 Z " fill="#FFFFFF" transform="translate(86,57)"/>
<path d="M0 0 C0.66 0 1.32 0 2 0 C1.88487847 1.72985242 1.75744323 3.45888751 1.625 5.1875 C1.55539063 6.15042969 1.48578125 7.11335938 1.4140625 8.10546875 C0.99784147 11.01508938 0.20125904 13.32890774 -1 16 C-1.66 16 -2.32 16 -3 16 C-2.855625 15.01 -2.71125 14.02 -2.5625 13 C-2.15860169 10.21253281 -1.8182336 7.42343513 -1.5 4.625 C-1 1 -1 1 0 0 Z " fill="#FFC849" transform="translate(34,20)"/>
</svg>
